<?xml version="1.0" standalone="no"?>
<!DOCTYPE svg PUBLIC "-//W3C//DTD SVG 1.1//EN" "http://www.w3.org/Graphics/SVG/1.1/DTD/svg11.dtd" >
<!--
2013-9-30: Created.
-->
<svg>
<metadata>
Created by iconfont
</metadata>
<defs>

<font id="iconfont" horiz-adv-x="1024" >
  <font-face
    font-family="iconfont"
    font-weight="500"
    font-stretch="normal"
    units-per-em="1024"
    ascent="896"
    descent="-128"
  />
    <missing-glyph />
    
    <glyph glyph-name="x" unicode="x" horiz-adv-x="1001"
d="M281 543q-27 -1 -53 -1h-83q-18 0 -36.5 -6t-32.5 -18.5t-23 -32t-9 -45.5v-76h912v41q0 16 -0.5 30t-0.5 18q0 13 -5 29t-17 29.5t-31.5 22.5t-49.5 9h-133v-97h-438v97zM955 310v-52q0 -23 0.5 -52t0.5 -58t-10.5 -47.5t-26 -30t-33 -16t-31.5 -4.5q-14 -1 -29.5 -0.5
t-29.5 0.5h-32l-45 128h-439l-44 -128h-29h-34q-20 0 -45 1q-25 0 -41 9.5t-25.5 23t-13.5 29.5t-4 30v167h911zM163 247q-12 0 -21 -8.5t-9 -21.5t9 -21.5t21 -8.5q13 0 22 8.5t9 21.5t-9 21.5t-22 8.5zM316 123q-8 -26 -14 -48q-5 -19 -10.5 -37t-7.5 -25t-3 -15t1 -14.5
t9.5 -10.5t21.5 -4h37h67h81h80h64h36q23 0 34 12t2 38q-5 13 -9.5 30.5t-9.5 34.5q-5 19 -11 39h-368zM336 498v228q0 11 2.5 23t10 21.5t20.5 15.5t34 6h188q31 0 51.5 -14.5t20.5 -52.5v-227h-327z" />
    

    
    <glyph glyph-name="wangwang" unicode="&#58884;" d="M830.7428 556.2143l-0.1849 0.1479c-78.503 62.1868-176.8733 87.3008-272.0067 111.5873l-1.8788 0.4797c-10.4823 2.6552-20.2351 5.0646-28.8396 7.1891-53.6039 13.24-78.0983 19.2899-117.9099 43.6434-24.8232 15.8363-100.8418 57.2192-126.1107 57.2192-7.847 0-12.526-3.2208-15.1883-6.2408-4.2493-4.5769-7.9469-12.6744-2.9931-25.9024 2.1786-5.8181 5.6994-12.1967 9.7758-19.5827 6.0182-10.9046 12.8408-23.2642 16.8383-36.4573l0.065-0.2099c12.8158-40.1538 3.138-71.8133-29.5742-96.7764-57.1566-43.5145-102.9174-90.6415-136.0144-140.07-45.9178-68.5775-67.3221-141.3682-63.6185-216.3563 2.6503-53.2379 16.0138-103.7117 39.7227-150.0173 22.8804-44.6887 54.7042-84.2319 94.5887-117.5313 79.9461-66.7487 187.4326-103.5098 302.6602-103.5108 11.8914 0 24.0057 0.3947 35.9981 1.1712C788.8875-118.6931 962.2191 45.6884 967.3838 273.9587 970.4398 382.9767 923.1899 480.5786 830.7428 556.2143zM937.4119 274.7171c-4.7949-211.9193-166.8567-364.5508-403.2731-379.8035-11.3548-0.7355-22.8155-1.1082-34.0633-1.1082-225.9681 0.002-397.147 144.0743-407.0277 342.5657C85.6494 386.1806 191.1183 499.107 280.9111 567.4697c21.3724 16.3099 35.6243 35.6258 42.361 57.4121 6.7437 21.8082 5.9472 46.1047-2.3655 72.213-4.9169 16.177-12.8638 30.5743-19.2517 42.1474-0.4347 0.7865-0.8894 1.6109-1.3531 2.4553 7.5022-2.8351 17.6787-7.1541 30.9723-13.5408 22.1539-10.6438 46.7372-24.0817 62.6271-34.2328l0.2438-0.1519c43.8441-26.8408 71.4665-33.6642 126.4994-47.256 8.9823-2.2185 18.2704-4.5129 28.6388-7.1392l1.8528-0.4727c92.0484-23.5001 187.2287-47.7976 260.7089-105.9632C896.7748 463.4152 940.1991 374.1507 937.4119 274.7171zM622.0038 220.5029c7.791 27.4314 9.7578 62.6036 5.5355 99.0399-4.0874 35.2621-13.6173 68.2707-26.8359 92.946-15.2603 28.4857-33.8884 43.5425-53.8717 43.5425-1.4461 0-2.9081-0.0839-4.3442-0.2508-20.6988-2.3984-37.0724-21.2336-46.1056-53.036-7.791-27.4314-9.7568-62.6046-5.5355-99.0409 4.0864-35.2611 13.6173-68.2697 26.8359-92.944 15.2603-28.4857 33.8884-43.5425 53.8707-43.5425 1.4471 0 2.9091 0.0849 4.3452 0.2508C596.597 169.8662 612.9705 188.7015 622.0038 220.5029zM569.7071 326.0653c-20.8407 0-38.0028-27.8451-40.3123-63.6858-3.9555 13.8866-6.9416 29.0333-8.7654 44.7756-7.9669 68.7594 9.9577 117.0666 25.3099 118.8454 0.2948 0.034 0.5956 0.052 0.8934 0.052 5.8093 0 16.4835-7.2601 27.4435-27.7192 11.4797-21.4285 19.8194-50.6357 23.482-82.2402 0.4737-4.0832 0.8525-8.0915 1.1483-12.0258C591.5252 317.6221 581.1748 326.0653 569.7071 326.0653zM804.1238 497.9198c-1.4461 0-2.9081-0.0839-4.3442-0.2508-20.6988-2.3984-37.0724-21.2336-46.1056-53.036-7.791-27.4314-9.7578-62.6046-5.5355-99.0409 4.0874-35.2611 13.6173-68.2697 26.8359-92.944 15.2603-28.4857 33.8884-43.5425 53.8707-43.5425 1.4471 0 2.9091 0.0849 4.3452 0.2508 20.6988 2.3984 37.0724 21.2336 46.1056 53.035 7.791 27.4314 9.7578 62.6046 5.5355 99.0399-4.0874 35.2621-13.6173 68.2707-26.8359 92.946C842.7362 482.863 824.107 497.9198 804.1238 497.9198zM856.8612 333.7151c-7.1454 20.5411-19.9533 34.2378-34.568 34.2378-18.3173 0-33.7935-21.5104-38.8433-51.0524-2.3705 10.267-4.2433 21.0517-5.5285 32.1422-7.9669 68.7594 9.9577 117.0666 25.3099 118.8454 0.2948 0.034 0.5956 0.052 0.8934 0.052 5.8093 0 16.4835-7.2601 27.4435-27.7192 11.4797-21.4285 19.8194-50.6357 23.482-82.2402C856.0247 349.5684 856.6093 341.4659 856.8612 333.7151zM766.1719 92.2888c-6.4179 5.2075-15.8509 4.2261-21.0746-2.1795-0.1699-0.2089-17.329-21.0168-43.975-34.0729-33.7675-16.5488-67.2232-13.344-99.4277 9.5145-6.7527 4.7928-16.1087 3.2038-20.9017-3.5466-4.7919-6.7514-3.203-16.1081 3.5487-20.9008 26.5381-18.8352 51.829-25.4937 74.3267-25.4937 22.0669 0 41.4476 6.4077 56.6709 14.0115 32.2215 16.0931 52.2257 40.5885 53.0612 41.6238C773.5912 77.6757 772.5899 87.0804 766.1719 92.2888z"  horiz-adv-x="1000" />

    
    <glyph glyph-name="yongcan" unicode="&#59221;" d="M509.472 732C269.888 732 74.944 537.056 74.944 297.472s194.944-434.528 434.528-434.528S944 57.888 944 297.472 749.056 732 509.472 732zM509.472-105.056c-221.984 0-402.528 180.576-402.528 402.528C106.944 519.424 287.488 700 509.472 700S912 519.424 912 297.472C912 75.488 731.424-105.056 509.472-105.056zM460.768 546.816c-5.664 0-10.24-4.576-10.24-10.24l0-81.92c-0.096 0.032-0.16 0.064-0.256 0.064-1.056-4.768-6.048-8.384-12.096-8.384-6.368 0-11.552 4.032-12.192 9.184l-0.128 0L425.856 536.576c0 5.664-4.576 10.24-10.24 10.24-5.632 0-10.24-4.576-10.24-10.24l0-81.024-0.128 0c-0.64-5.152-5.792-9.184-12.192-9.184-6.016 0-11.04 3.616-12.096 8.384-0.096 0-0.16-0.032-0.224-0.064L380.736 536.576c0 5.664-4.576 10.24-10.24 10.24-5.664 0-10.24-4.576-10.24-10.24l0-100.768c0-0.16 0.032-0.32 0.032-0.448 0-0.192-0.032-0.32-0.032-0.512l0-30.176c0-14.624 17.28-37.312 31.744-39.36l0-276.192c0-13.056 10.56-23.616 23.648-23.616 13.024 0 23.616 10.56 23.616 23.616l0 276.192c14.464 2.016 31.776 24.736 31.776 39.36l0 30.176c0 0.16-0.064 0.32-0.064 0.48 0 0.16 0.064 0.32 0.064 0.48L471.04 536.576C470.976 542.24 466.4 546.816 460.768 546.816zM589.024 560.16c-38.496 0-69.696-65.984-69.696-104.448 0-28.928 17.632-53.728 42.72-64.256l0-298.912c0-15.648 11.104-28.352 24.8-28.352s24.8 12.672 24.8 28.352l0 297.312c27.36 9.408 47.04 35.296 47.04 65.856C658.688 494.176 627.52 560.16 589.024 560.16z"  horiz-adv-x="1024" />

    
    <glyph glyph-name="back" unicode="&#59031;" d="M363.840919 423.021263C336.938714 398.641139 337.301807 358.513862 364.730379 334.513862L673.951902 63.94503C682.818816 56.186481 696.296418 57.084988 704.05497 65.951902 711.813519 74.818816 710.915012 88.296418 702.048098 96.05497L392.826577 366.623802C384.59578 373.825747 384.502227 384.164713 392.492414 391.40582L702.325747 672.192277C711.056111 680.104171 711.719614 693.595384 703.807723 702.325748 695.895829 711.056111 682.404617 711.719614 673.674253 703.807722L363.840919 423.021263Z"  horiz-adv-x="1024" />

    
    <glyph glyph-name="close" unicode="&#59034;" d="M176.661601 78.827119C168.472798 70.355945 168.701706 56.850364 177.172881 48.661562 185.644056 40.472759 199.149636 40.701668 207.338438 49.172843L826.005105 689.172843C834.193907 697.644017 833.964998 711.149597 825.493824 719.338399 817.02265 727.527202 803.517069 727.298294 795.328267 718.827119L176.661601 78.827119ZM795.328267 49.172843C803.517069 40.701668 817.02265 40.472759 825.493824 48.661562 833.964998 56.850364 834.193907 70.355945 826.005105 78.827119L207.338438 718.827119C199.149636 727.298294 185.644056 727.527202 177.172881 719.338399 168.701706 711.149597 168.472798 697.644017 176.661601 689.172843L795.328267 49.172843Z"  horiz-adv-x="1024" />

    
    <glyph glyph-name="sousuo" unicode="&#59360;" d="M103.1424 346.3872c0 201.1904 163.072 364.2624 364.2624 364.2624s364.2624-163.072 364.2624-364.2624-163.072-364.2624-364.2624-364.2624S103.1424 145.2224 103.1424 346.3872L103.1424 346.3872zM728.9856 23.264l188.1344-188.0832 54.528 54.528-187.392 187.4432c62.0032 72.6784 99.456 166.9376 99.456 269.9776 0 229.9136-186.368 416.3072-416.3072 416.3072-229.9136 0-416.3072-186.368-416.3072-416.3072 0-229.9136 186.368-416.3072 416.3072-416.3072C566.5024-69.1776 657.4848-34.5408 728.9856 23.264L728.9856 23.264zM728.9856 23.264"  horiz-adv-x="1024" />

    
    <glyph glyph-name="xingxing" unicode="&#58907;" d="M558.023837 799.042991c23.961325-67.101441 92.83858-258.659464 92.83858-258.659464s198.515321 0.544907 296.119408 0c64.469344-0.357595 87.295851-39.326981 32.052225-83.337975-55.25214-44.014643-240.875782-190.470641-240.875782-190.470641s70.917008-218.52242 90.594486-279.238228c19.707886-60.68905-23.574538-88.012258-64.083773-59.523824-40.523831 28.507895-253.254178 176.397924-253.254178 176.397924S306.979696-39.057264 259.695609-72.187141c-47.279222-33.129877-82.125313 7.582482-66.288945 56.282355 15.831503 48.685277 91.712276 282.463885 91.712276 282.463885S84.018957 425.331461 42.670468 457.949271c-41.33511 32.631189-42.646293 84.242911 24.75436 83.511908 67.410384-0.717623 303.868524 0 303.868524 0s69.638665 194.357971 91.717141 257.580596C486.957222 867.593058 534.096568 866.144432 558.023837 799.042991L558.023837 799.042991zM511.416019 796.881607"  horiz-adv-x="1024" />

    
    <glyph glyph-name="gongyu" unicode="&#59026;" d="M538.9 410.4 477.6 411.1 477.6 358.8 538.9 358.5ZM413 410.4 351.6 411.1 351.6 358.7 413 358.5ZM351.7 254.8 413 254.6 413 306.5 351.7 307.1ZM661.8 410.4 600.5 411.1 600.5 358.8 661.8 358.5ZM539 512.9 477.6 513.6 477.6 461.3 539 461ZM477.6 180.7 539 180.3 539 307.1 477.6 307.1ZM512 880c-273.5 0-496-222.5-496-496s222.5-496 496-496 496 222.5 496 496S785.5 880 512 880zM272.7 134.3l-0.5 38L310 172.3l-0.9 266.5L288 439.2c-12.1 0.3-14.5 6.7-5.2 14.4L497.1 631c4.8 3.9 12.4 4.1 17.2 0.5l226.3-171.3c9.5-7.2 7.5-13.1-4.7-13.1l-21 0-0.5-274.4 36.9-1 0.4-37.8L272.7 134.3zM600.5 254.8 661.9 254.6 661.9 306.5 600.5 307.1Z"  horiz-adv-x="1024" />

    
    <glyph glyph-name="piaowu" unicode="&#58971;" d="M512 876.8C239.8528 876.8 19.2 656.1472 19.2 384c0-272.15232 220.6528-492.8 492.8-492.8 272.15232 0 492.8 220.64768 492.8 492.8C1004.8 656.1472 784.15232 876.8 512 876.8zM512-81.41696C255.35872-81.41696 46.57536 127.35744 46.57536 384 46.57536 640.64128 255.35872 849.42464 512 849.42464c256.64256 0 465.41696-208.78208 465.41696-465.42464C977.41696 127.35744 768.64256-81.41696 512-81.41696zM881.52576 477.31328l-39.54816 39.56736c-9.51552 9.52064-24.81536 15.4496-39.89504 15.4496-6.41664 0-12.40064-1.0368-16.00512-2.56-0.24576-0.07936-68.05248-15.72736-108.07168 24.30336-38.9312 38.90176-24.72832 106.24512-24.864 106.24512-0.0256 0-0.0256 0-0.0256 0 7.0336 18.39872 1.65376 43.73888-12.27904 57.70112L601.216 757.58592c-14.99264 14.99904-41.41312 15.104-56.51584 0l-410.432-410.37056c-15.52896-15.58528-15.52896-40.96768 0.03072-56.55296l39.59296-39.59936c9.52064-9.51424 24.78464-15.42528 39.86304-15.42528 6.41664 0 12.40704 1.04832 16.01664 2.56768 0.26624 0.02432 68.07296 15.69664 108.06528-24.29696 38.93248-38.9312 24.73472-106.24512 24.8704-106.24512-7.00928-18.46016-1.63456-43.76832 12.29696-57.70112l39.56736-39.6224c7.54048-7.51488 17.59744-11.6608 28.26496-11.6608 10.69312 0 20.74368 4.17152 28.25856 11.6864l410.432 410.42688c7.50208 7.51488 11.6736 17.56544 11.6736 28.25728C893.19936 459.74144 889.02912 469.7984 881.52576 477.31328zM862.16448 440.14592l-410.432-410.4192c-4.70144-4.68864-13.09824-4.73856-17.80608 0l-39.56736 39.59808c-6.41664 6.40512-9.30432 20.03968-5.50912 30.41792 0.77696 3.36896 18.42304 83.44064-31.65184 133.52832-29.09184 29.10976-68.55424 35.22944-96.52224 35.22944-21.06368 0-36.3584-3.44192-38.82112-4.14592-8.12544-3.14624-22.4576-0.04864-28.60416 6.07104l-39.57376 39.59936c-4.91776 4.92288-4.91776 12.91904-0.0256 17.8304l410.39488 410.34624c4.73856 4.78848 13.13024 4.70784 17.80608 0.0256l39.59936-39.56736c6.45376-6.44736 9.34144-20.0832 5.53984-30.42432-0.77696-3.36896-18.42304-83.47264 31.65184-133.52192 29.08544-29.11616 68.54784-35.23584 96.52224-35.23584 21.06368 0 36.3648 3.44192 38.81984 4.13952 8.13312 3.15264 22.45888 0.05504 28.60416-6.09536l39.57376-39.56736c2.35648-2.35648 3.66464-5.50912 3.66464-8.90368C865.8304 445.65504 864.52096 442.496 862.16448 440.14592zM543.01056 522.52032c-5.344 5.34912-14.00576 5.34912-19.34848 0l-154.272-154.2656c-5.34912-5.3568-5.34912-14.01856 0-19.36128 2.67136-2.67776 6.176-4.01152 9.68064-4.01152 3.49824 0 7.00288 1.33376 9.67424 4.01152l154.2656 154.27072C548.3648 508.50816 548.3648 517.1712 543.01056 522.52032zM627.06688 419.10656l-154.2656-154.272c-5.34912-5.34272-5.34912-14.00448 0-19.36128 2.67776-2.66496 6.176-4.01024 9.68064-4.01024s7.00288 1.34528 9.68064 4.01024l154.2656 154.272c5.344 5.34912 5.344 14.01216 0 19.36128C641.08672 424.45056 632.42368 424.45056 627.06688 419.10656z"  horiz-adv-x="1024" />

    
    <glyph glyph-name="paixu" unicode="&#58892;" d="M300.096 849.696C298.144 852.128 295.072 853.568 291.904 853.568c-3.2 0-6.24-1.44-8.224-3.872L88.576 605.44C85.76 601.888 85.728 596.96 88.544 593.344 91.328 589.792 96.256 588.48 100.608 590.112l147.296 55.392 0-731.072 88.032 0L335.936 647.072l144.864-54.496-4.16 0 6.496-2.464c4.32-1.632 9.248-0.288 12.064 3.264 1.408 1.792 2.08 3.904 2.08 6.016 0 2.112-0.704 4.288-2.144 6.08L300.096 849.696zM935.456 174.624c-2.816 3.552-7.744 4.896-12.064 3.264l-6.496-2.464 4.16 0-144.864-54.496L776.192 853.568l-88.032 0 0-731.072-147.296 55.392c-4.32 1.632-9.28 0.288-12.064-3.264-2.816-3.584-2.784-8.512 0.064-12.096l195.072-244.256c1.952-2.432 4.992-3.904 8.224-3.904 3.2 0 6.24 1.44 8.192 3.904l195.072 244.256c1.44 1.792 2.144 3.936 2.144 6.08C937.568 170.72 936.864 172.832 935.456 174.624z"  horiz-adv-x="1024" />

    
    <glyph glyph-name="shaixuan" unicode="&#58885;" d="M450.235284-1.17143c-6.412037 0-12.825097 3.206018-16.031115 3.206018-9.618055 6.412037-16.031115 19.237133-16.031115 28.855188l0 278.938943-282.144962 407.185816c-6.412037 9.618055-9.618055 22.443152-3.206018 35.268248 6.41306 9.618055 16.031115 16.031115 28.856211 16.031115l705.361893 0c12.825097 0 22.443152-6.412037 28.855188-16.031115 6.41306-9.618055 3.206018-22.443152-3.206018-32.06223l-282.143938-410.391834 0-214.814484c0-12.825097-6.41306-22.443152-19.237133-28.856211l-128.247896-64.123436C459.854363-1.17143 456.648344-1.17143 450.235284-1.17143z"  horiz-adv-x="1024" />

    
    <glyph glyph-name="shuikeyikanxiaodiqiu" unicode="&#58972;" d="M494.848 896l34.048 0c58.944-2.752 117.824-14.208 172.672-36.416 114.496-45.312 211.136-133.568 266.624-243.328 35.264-68.8 54.08-145.792 55.68-223.04l0-18.368c-1.408-76.224-19.84-152.128-54.336-220.224-33.536-67.136-82.24-126.656-141.184-173.056-60.352-47.552-131.456-81.152-206.592-97.536C591.36-122.688 560.256-126.016 529.088-128L495.104-128c-40.896 2.176-81.6 7.808-121.024 18.944-95.296 26.432-182.336 81.472-247.296 156.032-45.696 52.032-80.576 113.472-102.016 179.456C9.216 274.24 1.216 324.608 0 374.848L0 393.216c1.792 93.376 29.312 186.24 79.68 265.152C133.12 742.592 211.648 810.688 302.72 851.2 363.072 878.656 428.8 892.928 494.848 896L494.848 896 494.848 896zM397.184 786.752C364.736 746.048 343.552 697.664 326.4 648.896c24.064-6.144 48.896-8.768 73.408-12.48 30.528-3.072 61.056-5.888 91.648-6.144 0 74.24 0 148.608 0 222.784C452.48 844.864 421.184 817.344 397.184 786.752L397.184 786.752 397.184 786.752zM532.48 630.272c41.408 0.896 82.88 4.16 123.904 10.816 13.888 1.792 27.584 4.288 41.28 7.808-20.096 57.152-46.016 114.112-88.64 158.144C588.224 828.864 562.368 846.784 532.544 853.056 532.352 778.88 532.544 704.512 532.48 630.272L532.48 630.272 532.48 630.272zM356.736 828.736C284.224 803.456 218.24 760.256 166.272 703.808c38.016-20.16 78.72-34.88 120.384-45.568 21.76 65.408 52.16 130.24 101.312 179.712C377.28 835.968 367.04 832.192 356.736 828.736L356.736 828.736 356.736 828.736zM635.84 838.336c10.176-9.408 18.368-20.736 27.328-31.232 33.408-44.736 56.896-96.128 74.24-148.992 41.536 10.816 82.24 25.856 120.384 45.568C798.336 768.128 720.64 815.68 635.84 838.336L635.84 838.336 635.84 838.336zM138.944 671.872c-58.88-76.416-93.76-170.88-97.472-267.392 68.224 0.192 136.448 0 204.736 0C247.488 476.736 256.768 548.864 274.944 618.88 227.84 631.296 181.76 648.32 138.944 671.872L138.944 671.872 138.944 671.872zM749.056 618.88c18.112-70.016 27.328-142.144 28.608-214.464 68.288 0.192 136.64 0 204.864 0-4.032 96.512-38.656 191.104-97.664 267.392C842.112 648.32 796.032 631.424 749.056 618.88L749.056 618.88 749.056 618.88zM287.104 404.736c68.16-0.448 136.256-0.128 204.352-0.32L491.456 589.44c-59.264 0.96-118.656 7.168-176.64 19.84C297.216 542.656 288.64 473.664 287.104 404.736L287.104 404.736 287.104 404.736zM532.48 589.44c0-61.76 0-123.264 0-185.024 68.096 0.192 136.256-0.128 204.352 0.32-1.472 68.928-10.112 137.856-27.712 204.544C651.136 596.672 591.744 590.528 532.48 589.44L532.48 589.44 532.48 589.44zM41.472 363.648c3.84-96.512 38.592-191.04 97.472-267.328 42.816 23.232 88.896 40.32 136 52.864-18.176 70.016-27.392 142.208-28.736 214.464C177.92 363.456 109.696 363.456 41.472 363.648L41.472 363.648 41.472 363.648zM287.104 363.328c1.536-68.928 10.112-137.984 27.904-204.672 57.856 12.864 117.248 18.88 176.512 19.968 0 61.696 0 123.264 0 184.832C423.36 363.456 355.264 363.776 287.104 363.328L287.104 363.328 287.104 363.328zM532.48 363.456l0-184.832c59.328-1.088 118.72-7.232 176.64-19.904 17.344 66.88 26.496 135.744 27.52 204.864C668.544 363.328 600.512 363.648 532.48 363.456L532.48 363.456 532.48 363.456zM777.664 363.456c-1.152-72.064-10.496-144.256-28.608-214.272 46.976-12.352 93.056-29.44 135.808-52.864 59.072 76.224 93.632 170.816 97.664 267.136C914.304 363.648 846.016 363.456 777.664 363.456L777.664 363.456 777.664 363.456zM326.4 119.232c19.968-57.216 46.08-114.24 88.576-158.336 20.8-21.952 46.72-39.744 76.544-45.888 0.064 74.112 0 148.288 0 222.72C436.032 136.64 380.544 131.008 326.4 119.232L326.4 119.232 326.4 119.232zM532.48 137.792c0-74.432-0.064-148.608 0.064-222.72 38.848 8.128 70.208 35.584 94.08 66.176 32.512 40.704 53.824 89.152 70.912 137.984-24.768 5.952-50.176 8.96-75.584 12.544C592.256 134.72 562.432 137.472 532.48 137.792L532.48 137.792 532.48 137.792zM166.208 64.384c59.392-64.512 137.088-112.064 221.888-134.528-49.088 49.664-79.808 114.368-101.44 180.032C244.992 99.264 204.416 83.968 166.208 64.384L166.208 64.384 166.208 64.384zM737.344 109.952c-21.76-65.664-52.416-130.56-101.632-180.032 84.672 22.464 162.432 70.016 221.952 134.336C819.712 84.48 778.88 98.944 737.344 109.952L737.344 109.952 737.344 109.952zM737.344 109.952"  horiz-adv-x="1024" />

    
    <glyph glyph-name="biaojixiaoqi" unicode="&#58953;" d="M512 896a512 512 0 1 1 0-1024A512 512 0 0 1 512 896z m128-768v-128H256v128h128V768l529.728-231.872L512 304.192V128h128z"  horiz-adv-x="1024" />

    
    <glyph glyph-name="tesegongyu" unicode="&#59164;" d="M779.963984-27.090752c78.850859 0 143.002948 64.132646 143.002948 142.984528V652.107247c0 78.850859-64.152089 143.003971-143.002948 143.003972H244.034992c-78.850859 0-143.002948-64.153112-143.002948-143.003972v-536.213471c0-78.851882 64.152089-142.984528 143.002948-142.984528h535.928992m0-35.761482H244.034992c-98.716302 0-178.743964 80.029708-178.743963 178.744987V652.107247c0 98.716302 80.028685 178.744987 178.743963 178.744987h535.930016c98.715279 0 178.744987-80.029708 178.744987-178.744987v-536.213471c-0.001023-98.716302-80.029708-178.74601-178.746011-178.74601zM523.041474 600.542848l95.440699-62.339814V166.164716h-95.440699V600.542848z m102.907764-268.156366v-164.2826h116.861568V295.057295l-116.861568 37.329187z m49.344849-128.557958l-35.71748 10.402931v30.810726l35.71748-12.964266v-28.249391z m0 53.899584l-35.71748 10.402931v30.803563l35.71748-12.972452v-28.234042z m44.796252-66.871013l-35.733853 10.395768v30.827099l35.733853-12.987802v-28.235065z m0 53.883211l-35.71748 10.395768V285.963173l35.725666-12.972453-0.008186-28.250414zM394.164245 526.523017v-246.672052l-16.873296-11.026124v82.388428l-10.706853-4.427846v82.181721l-77.937047-34.408671v-80.051197l-7.459902-3.095501V166.164716h230.93872V601.835284l-117.961622-75.312267z m-98.368379-147.640571l26.303063 12.174274v-31.640628l-26.303063-11.69639v31.162744z m1.946329-51.291177l26.303062 12.18246v-31.657l-26.303062-11.680017V327.591269z m27.094078-113.686249l-26.287713-11.695366v31.169907l26.287713 12.166087v-31.640628z m0 48.227398l-26.287713-11.711739v31.169907l26.287713 12.166087v-31.624255z m3.741207 132.011616l26.303063 12.174274v-31.657l-26.303063-11.688204v31.17093z m1.954515-51.28299l26.2959 12.174274v-31.657l-26.2959-11.703553v31.186279z m29.383214-113.86942l-26.303062-11.71174v31.178093l26.303062 12.166088v-31.632441z m0 48.202838L333.612147 265.507282v31.16172l26.303062 12.166088v-31.640628z m84.231404-5.480828l-36.371373-22.7614v33.754779L444.146613 306.234869v-34.521235z m0 57.043181l-36.371373-22.753213v33.762964l36.371373 23.526833v-34.536584z m0 57.066717l-36.371373-22.769587v33.779338l36.371373 23.543206v-34.552957z m0 57.050344l-36.371373-22.753214v33.762965l36.371373 23.543206v-34.552957z m0 57.05853l-36.371373-22.7614v33.771151l36.371373 23.535019v-34.54477z m53.891397-194.503903l-42.203194-26.399253v34.776038l42.203194 27.324322v-35.701107z m0 57.066717l-42.203194-26.422789v34.799574l42.203194 27.324322v-35.701107z m0 57.050344l-42.203194-26.415626v34.792411l42.203194 27.332508v-35.709293z m0 57.059554l-42.203194-26.415626v34.79241l42.203194 27.332509v-35.709293z m0 57.066716l-42.203194-26.415626v34.800597l42.203194 27.324323v-35.709294z"  horiz-adv-x="1024" />

    
    <glyph glyph-name="quanbufenlei" unicode="&#58904;" d="M490.21952 512.29184c0-58.82368-47.68768-106.50624-106.50624-106.50624h-263.3216c-58.81856 0-106.50624 47.68256-106.50624 106.50624V775.6032c0 58.82368 47.68256 106.51136 106.50624 106.51136h263.3216c58.81856 0 106.50624-47.68768 106.50624-106.51136v-263.31136zM428.75904 775.6032a45.04576 45.04576 0 0 1-45.04576 45.04576h-263.3216a45.04576 45.04576 0 0 1-45.04064-45.04576v-263.31648a45.04576 45.04576 0 0 1 45.04064-45.04576h263.3216a45.04576 45.04576 0 0 1 45.04576 45.04576V775.6032zM136.81152 636.26752a15.36 15.36 0 0 0-15.37024 15.36512V679.3216c0 42.55744 28.39552 79.872 67.4304 79.872h95.73888a15.36 15.36 0 1 0 0-30.73024H188.87168c-23.95648 0-36.70016-26.42432-36.70016-49.14176v-27.68896a15.36 15.36 0 0 0-15.36-15.36512zM130.95424 583.56736c-4.00384 0-7.99744 1.69984-10.9056 4.45952a16.09728 16.09728 0 0 0-4.4544 10.91072c0 3.98848 1.67424 7.98208 4.4544 10.9056 5.8368 5.69344 15.96416 5.69344 21.81632 0 2.7648-2.92352 4.46464-6.91712 4.46464-10.9056s-1.69984-8.00256-4.46464-10.76224c-2.92864-2.90816-6.92224-4.608-10.91072-4.608zM1012.6592 512.29184c0-58.82368-47.68768-106.50624-106.5216-106.50624h-263.31136c-58.82368 0-106.5216 47.68256-106.5216 106.50624V775.6032c0 58.82368 47.6928 106.51136 106.5216 106.51136h263.31136c58.8288 0 106.5216-47.68768 106.5216-106.51136v-263.31136zM951.1936 775.6032a45.04576 45.04576 0 0 1-45.056 45.04576h-263.31136c-24.87808 0-45.056-20.16768-45.056-45.04576v-263.31648a45.056 45.056 0 0 1 45.056-45.04576h263.31136a45.056 45.056 0 0 1 45.056 45.04576V775.6032zM490.21952-10.14272c0-58.82368-47.68768-106.50624-106.50624-106.50624h-263.3216c-58.81856 0-106.50624 47.68256-106.50624 106.50624v263.31648c0 58.81344 47.68256 106.5216 106.50624 106.5216h263.3216c58.81856 0 106.50624-47.70304 106.50624-106.5216v-263.31648z m-61.46048 263.31136a45.04576 45.04576 0 0 1-45.04576 45.05088h-263.3216a45.04064 45.04064 0 0 1-45.04064-45.05088v-263.31648c0-24.87296 20.16768-45.05088 45.04064-45.05088h263.3216a45.05088 45.05088 0 0 1 45.04576 45.05088v263.31648zM1012.6592-10.14272c0-58.82368-47.68768-106.50624-106.5216-106.50624h-263.31136c-58.82368 0-106.5216 47.68256-106.5216 106.50624v263.31648c0 58.81344 47.6928 106.5216 106.5216 106.5216h263.31136c58.8288 0 106.5216-47.70304 106.5216-106.5216v-263.31648z m-61.4656 263.31136a45.05088 45.05088 0 0 1-45.056 45.05088h-263.31136a45.056 45.056 0 0 1-45.056-45.05088v-263.31648a45.056 45.056 0 0 1 45.056-45.05088h263.31136a45.056 45.056 0 0 1 45.056 45.05088v263.31648z"  horiz-adv-x="1024" />

    
    <glyph glyph-name="jipiao" unicode="&#58880;" d="M512 889.046c-278.931 0-505.028-226.096-505.028-505.028 0-278.895 226.096-505.046 505.028-505.046s505.046 226.151 505.046 505.046c0 278.931-226.115 505.028-505.046 505.028zM671.841 242.764l-13.276-7.767-6.701-117.447c0-13.547-10.874-24.548-24.259-24.548-13.403 0-24.277 10.964-24.241 24.548l0.289 4.696-61.523 174.219c40.534 25.288 83.849 53.81 124.708 83.488l-6.593-115.622c5.726 2.998 12.825 0.921 16.076-4.769 3.342-5.907 1.355-13.421-4.48-16.799zM334.728 267.601c-2.673-1.59-5.401-2.89-8.183-4.028l-15.444-66.888c-3.089-13.403-16.185-21.062-29.208-17.070l-10.946 3.36c1.879 27.763-5.347 59.482-22.236 89.124-16.943 29.768-40.534 52.004-65.316 64.215l2.637 11.47c3.125 13.439 16.203 21.062 29.226 17.106l102.219-31.322c0.614-0.217 1.228-0.379 1.824-0.632 27.799 22.994 82.675 67.412 146.871 114.647l-150.231 179.421-4.191 2.168c-11.633 6.774-15.588 21.82-8.887 33.561 6.683 11.777 21.549 15.787 33.164 9.032l117.392-59.934 16.582 9.682c5.798 3.396 13.258 1.391 16.6-4.48 3.342-5.907 1.337-13.385-4.462-16.781l-2.8-1.644 118.675-60.584c107.114 67.068 208.918 111.757 238.614 63.817 56.502-91.219-501.903-334.241-501.903-334.241z"  horiz-adv-x="1024" />

    
    <glyph glyph-name="gengduo2" unicode="&#58895;" d="M640.896 384a1.002 1.002 0 1 1 128.256 0 1.002 1.002 0 1 1-128.256 0zM448.576 384a1.002 1.002 0 1 1 128.256 0 1.002 1.002 0 1 1-128.256 0zM256.384 384a1.002 1.002 0 1 1 128.256 0 1.002 1.002 0 1 1-128.256 0zM512-128C229.632-128 0 101.76 0 384.064S229.632 896 512 896c282.24 0 512-229.632 512-511.936S794.24-128 512-128z m0 985.856c-261.312 0-473.856-212.48-473.856-473.792 0-261.248 212.544-473.856 473.856-473.856 261.184 0 473.792 212.608 473.792 473.856 0 261.312-212.608 473.792-473.792 473.792z"  horiz-adv-x="1024" />

    
    <glyph glyph-name="gengduo" unicode="&#58943;" d="M497.664-54.912a21.248 21.248 0 0 1 15.552-6.912 21.248 21.248 0 0 1 15.552 6.912h-31.104z m31.104 0l417.6 449.984c18.368 19.776 17.216 52.672-1.152 72.384a44.416 44.416 0 0 1-66.176 0.064l-365.888-393.792-365.76 393.792a44.48 44.48 0 0 1-66.24-0.064c-18.368-19.712-19.52-52.672-1.152-72.384l417.6-449.984h31.168zM497.344 294.208a21.248 21.248 0 0 1 15.552-6.912 21.376 21.376 0 0 1 15.552 6.912h-31.104z m31.104 0l417.6 449.984c18.368 19.776 17.28 52.672-1.088 72.384a44.48 44.48 0 0 1-66.24 0.064L512.896 422.848 147.072 816.64a44.48 44.48 0 0 1-66.24-0.064c-18.304-19.712-19.456-52.608-1.024-72.384l417.6-449.984h31.04z"  horiz-adv-x="1024" />

    
    <glyph glyph-name="xunhuan" unicode="&#58881;" d="M516.364-87.875c-126.417-0.012-245.565 48.625-336.004 137.246-6.937 6.796-9.099 17.099-5.478 26.11s12.325 14.949 22.04 15.051l152.81 1.548c13.299-0.307 24.127-10.507 24.254-23.769 0.14-13.259-10.507-24.114-23.769-24.254l-88.557-0.896c74.785-54.806 165.045-83.655 259.222-82.978 115.449 1.179 223.538 47.229 304.352 129.72 125.816 128.388 158.991 323.922 82.528 486.535-5.631 12.005-0.486 26.315 11.52 31.946 11.98 5.657 26.29 0.5 31.946-11.506 84.935-180.686 48.087-397.94-91.707-540.585-89.786-91.629-209.867-142.813-338.154-144.119-1.651-0.053-3.328-0.053-5.005-0.053zM88.36 178.616c-9.306 0-18.163 5.44-22.079 14.539-77.383 179.829-38.845 386.382 98.17 526.2 185.345 189.16 490.016 192.244 679.189 6.912 6.937-6.796 9.088-17.099 5.465-26.123s-12.313-14.949-22.04-15.051l-152.81-1.548c-12.684 0.155-24.114 10.507-24.254 23.769-0.14 13.259 10.496 24.127 23.769 24.254l88.455 0.896C591.816 856.936 350.706 840.821 198.755 685.735c-123.32-125.854-158.006-311.75-88.353-473.608 5.235-12.171-0.384-26.302-12.57-31.55a24.086 24.086 0 0 0-9.472-1.957z"  horiz-adv-x="1024" />

    
    <glyph glyph-name="tupian" unicode="&#58941;" d="M927.968 799.968H96A96 96 0 0 1 0 704v-639.968a96 96 0 0 1 96-96h831.968a96.032 96.032 0 0 1 96.032 96V704a96.064 96.064 0 0 1-96.032 95.968z m16-637.984l-200.832 267.808s-11.648 21.664-52.672 21.664c-46.528 0-60.512-20.992-60.512-20.992l-175.936-271.52s-9.568-18.176-33.056-18.176c-24.576 0-36.32 18.176-36.32 18.176l-92.512 105.76s-23.712 31.36-54.528 31.36c-30.656 0-56.16-34.752-56.16-34.752L80 134.784V686.816c0 17.664 14.336 32.032 32 32.032h800a32 32 0 0 0 32-32.032l-0.032-524.832zM463.904 511.968a113.312 113.312 0 1 0-226.656 0 113.312 113.312 0 0 0 226.656 0z"  horiz-adv-x="1024" />

    
    <glyph glyph-name="wodedianzimenpiao-" unicode="&#58976;" d="M512 384m-512 0a512 512 0 1 1 1024 0 512 512 0 1 1-1024 0ZM529.036778 519.397548c-4.483363 0-8.966725-1.793345-12.553415-5.380035l-134.500876-133.604203c-7.17338-7.17338-7.17338-17.93345 0-25.10683 7.17338-7.17338 18.830123-7.17338 25.10683 0l133.604203 133.604203c3.58669 3.58669 5.380035 8.070053 5.380035 12.553415 0 4.483363-1.793345 8.966725-5.380035 12.553415-2.690018 3.58669-7.17338 5.380035-11.656742 5.380035zM629.464098 418.970228c-4.483363 0-8.966725-1.793345-12.553415-5.380035l-134.500876-133.604204c-7.17338-7.17338-7.17338-17.93345 0-25.10683 7.17338-7.17338 18.830123-7.17338 25.10683 0l133.604204 133.604204c3.58669 3.58669 5.380035 8.070053 5.380035 12.553415 0 4.483363-1.793345 8.966725-5.380035 12.553415-2.690018 3.58669-7.17338 5.380035-11.656743 5.380035zM399.019264 36.987741c12.553415-12.553415 28.69352-18.830123 45.730298-18.830123 17.036778 0 34.073555 7.17338 45.730298 18.830123l368.532399 368.532399c12.553415 12.553415 18.830123 28.69352 18.830123 45.730298 0 17.036778-7.17338 34.073555-18.830123 45.730298l-45.730298 45.730297c-12.553415 12.553415-32.28021 15.243433-48.420315 8.070053-9.863398-4.483363-18.830123-7.17338-28.69352-7.17338-35.8669 0-64.56042 28.69352-64.56042 64.56042 0 9.863398 2.690018 18.830123 7.17338 28.69352 8.070053 16.140105 4.483363 34.970228-8.070053 48.420315l-45.730297 45.730298c-12.553415 12.553415-28.69352 18.830123-45.730298 18.830123-17.036778 0-34.073555-7.17338-45.730298-18.830123l-368.532399-367.635727c-25.10683-25.10683-25.10683-66.353765 0-92.357268l45.730298-45.730297c12.553415-12.553415 32.28021-15.243433 47.523642-8.070053 8.966725 4.483363 18.830123 7.17338 28.69352 7.17338 35.8669 0 64.56042-28.69352 64.560421-64.56042 0-9.863398-2.690018-18.830123-7.17338-28.69352-8.070053-16.140105-4.483363-34.970228 8.070052-47.523643l46.62697-46.62697zM286.935201 259.362522c-15.243433 0-29.590193-3.58669-43.936952-10.76007l-3.58669-1.793345-49.316988 49.316988c-11.656743 11.656743-11.656743 30.486865 0 41.246935l368.532399 368.532399c10.76007 10.76007 30.486865 10.76007 41.246935 0l48.420316-48.420315-1.793345-3.58669c-7.17338-14.34676-10.76007-29.590193-10.76007-44.833625 0-55.593695 44.833625-100.42732 100.42732-100.427321 15.243433 0 30.486865 3.58669 44.833625 10.76007l3.58669 1.793345 49.316988-49.316988c5.380035-5.380035 8.966725-12.553415 8.966725-20.623467 0-8.070053-2.690018-15.243433-8.966725-20.623468L465.37303 62.094571c-5.380035-5.380035-12.553415-8.966725-20.623468-8.966725-8.070053 0-15.243433 2.690018-20.623467 8.966725l-49.316988 49.316988 1.793345 3.58669c7.17338 14.34676 10.76007 29.590193 10.76007 43.936952C387.362522 214.528897 342.528897 259.362522 286.935201 259.362522z"  horiz-adv-x="1024" />

    
    <glyph glyph-name="gengduo1" unicode="&#58894;" d="M863.308449 333.318707H592.744367c-24.904679 0-45.092819-20.18814-45.092819-45.094867v-270.562034c0-24.905703 20.18814-45.094867 45.092819-45.094867h270.565106c24.904679 0 45.093843 20.189164 45.093843 45.094867V288.22384c-0.001024 24.906727-20.190188 45.094867-45.094867 45.094867M848.277168 273.193583v-240.50152H607.775648V273.193583h240.50152zM933.795418 603.216165l-176.373583 176.373583c-16.23448 16.23448-42.556373 16.23448-58.78983 0l-176.373583-176.373583c-16.23448-16.23448-16.23448-42.556373 0-58.791877l176.373583-176.373584c16.23448-16.23448 42.556373-16.23448 58.78983 0l176.373583 176.373584c16.235504 16.235504 16.235504 42.557397 0 58.791877M884.802187 573.82125L728.025896 417.044959 571.250629 573.820226l156.777315 156.777315 156.774243-156.776291zM442.431558 754.196622H171.8685c-24.904679 0-45.094867-20.189164-45.094867-45.093843V438.538697c0-24.904679 20.189164-45.093843 45.094867-45.093842h270.563058c24.906727 0 45.094867 20.189164 45.094866 45.093842V709.102779c0 24.904679-20.18814 45.093843-45.094866 45.093843M427.400277 694.071498v-240.502544H186.899781V694.071498h240.500496zM442.431558 333.318707H171.8685c-24.904679 0-45.094867-20.18814-45.094867-45.094867v-270.562034c0-24.905703 20.189164-45.094867 45.094867-45.094867h270.563058c24.906727 0 45.094867 20.189164 45.094866 45.094867V288.22384c0 24.906727-20.18814 45.094867-45.094866 45.094867M427.400277 273.193583v-240.50152H186.899781V273.193583h240.500496z"  horiz-adv-x="1024" />

    
    <glyph glyph-name="dingwei" unicode="&#58913;" d="M511.9-63.5c-9 0-18 2.9-25.6 8.6-69.8 53.1-299.3 245.7-323.1 494.3-9.6 100.3 23.5 201 90.9 276.1 31.9 35.5 69.5 63.6 112 83.6 44.3 20.9 91.8 31.7 141 32.4 47.8 0.6 94.2-8.2 138-26.2 42.3-17.4 80.2-42.6 112.9-74.8 32.7-32.3 58.4-69.9 76.3-112 18.6-43.5 28-89.8 28-137.5 0-62.8-14-127.3-41.5-191.5-22.7-53.1-55-106.6-95.7-159-73.2-94-155.8-161-188-185.5-7.3-5.7-16.3-8.5-25.2-8.5z m0 867.1h-4.3c-89.3-1.2-171.8-39.1-232.5-106.7-62.2-69.3-92.8-162.2-83.9-254.7 22.7-237.4 244.7-423.4 312.2-474.7 5.1-3.9 11.9-3.9 17-0.1 73.5 55.9 314 258.6 314 513.6 0 87-34.1 168.5-96 229.6-60.8 60-141.1 93-226.5 93zM512 349.2c-76.3 0-138.3 62.1-138.3 138.3 0 76.3 62.1 138.3 138.3 138.3 76.3 0 138.3-62 138.3-138.3 0-76.2-62-138.3-138.3-138.3z m0 248.7c-60.8 0-110.3-49.5-110.3-110.3S451.2 377.3 512 377.3s110.3 49.5 110.3 110.3S572.8 597.9 512 597.9z"  horiz-adv-x="1024" />

    
    <glyph glyph-name="jiudian1" unicode="&#58886;" d="M554.105 408.14h-16.842c-11.228 0-16.842-5.614-16.842-16.842v-44.912c0-11.228 5.614-16.842 16.842-16.842h16.842c11.228 0 16.842 5.614 16.842 16.842v44.912c0 11.228-11.228 16.842-16.842 16.842zM464.28 531.649h-16.842c-11.228 0-16.842-5.614-16.842-16.842v-44.912c0-11.228 5.614-16.842 16.842-16.842h16.842c11.228-5.614 16.842 5.614 16.842 11.228v50.527c0 5.614-5.614 16.842-16.842 16.842zM773.053 200.421h-22.456v202.105c0 16.842-11.228 28.071-28.071 28.071h-50.527v179.649c0 16.842-11.228 28.071-28.071 28.071h-280.702c-16.842 0-28.071-11.228-28.071-28.071v-404.211h-28.071c-11.228 0-22.456-11.228-22.456-22.456s11.228-22.456 22.456-22.456h460.351c11.228 0 22.456 11.228 22.456 22.456 5.614 5.614-5.614 16.842-16.842 16.842zM615.86 570.947v-370.526h-235.79v370.526c0 5.614 5.614 16.842 16.842 16.842h207.719c5.614 0 11.228-5.614 11.228-16.842 0 5.614 0 0 0 0zM705.684 363.227v-140.351c0-11.228-11.228-22.456-22.456-22.456s-22.456 11.228-22.456 22.456v140.351c0 11.228 11.228 16.842 22.456 16.842 16.842 0 22.456-5.614 22.456-16.842zM464.28 408.14h-16.842c-11.228 0-16.842-5.614-16.842-16.842v-44.912c0-11.228 5.614-16.842 16.842-16.842h16.842c11.228 0 16.842 11.228 16.842 16.842v44.912c0 11.228-5.614 16.842-16.842 16.842zM554.105 531.649h-16.842c-11.228 0-16.842-5.614-16.842-16.842v-44.912c0-11.228 5.614-16.842 16.842-16.842h16.842c11.228 0 16.842 5.614 16.842 16.842v44.912c0 5.614-11.228 16.842-16.842 16.842zM520.421 829.193c235.79 0 432.28-190.877 432.28-432.28 0-235.79-190.877-432.28-432.28-432.28-235.79 0-432.28 190.877-432.28 432.28 0 235.79 196.492 432.28 432.28 432.28M520.421 868.491c-258.246 0-471.579-213.334-471.579-471.579s207.719-471.579 471.579-471.579c258.246 0 471.579 213.334 471.579 471.579 0 258.246-213.334 471.579-471.579 471.579z"  horiz-adv-x="1024" />

    
    <glyph glyph-name="jingdian" unicode="&#58984;" d="M484.2 594.6c-1.2-20.4-3-40-5.3-59.1H542c-2.3 19.1-4.1 38.7-5.3 59.1h-52.5zM471.8 488.3c-13.8-78.1-37.2-146.4-69.1-212.7h215.5c-31.9 66.3-55.3 134.7-69.1 212.7h-77.3zM469.9-111.6c308.1-24.3 563.3 230.9 539 539C989.7 669.7 793.4 866.1 551 885.2 242.9 909.5-12.2 654.3 12 346.2c19.2-242.3 215.5-438.7 457.9-457.8zM639 63.6c-12.1-5-26.1 0.6-31.2 12.7-12.8 31-50.6 56.5-97.4 56.4-46.8 0.1-84.6-25.4-97.4-56.4-5.1-12-19-17.7-31.2-12.7-12.1 5-17.9 18.9-12.8 30.9 22 51.5 77.6 85.3 141.3 85.4 63.7-0.1 119.3-33.9 141.3-85.4 5.3-12-0.4-25.8-12.6-30.9z m-396 36.5c30.6 44.8 57.5 86.5 80.9 127.1h-4c-13.2 0-23.8 10.6-23.8 23.6 0 13.1 10.7 23.6 23.8 23.6h29.7c35 68.5 59.6 136 74 212.7h-8.3c-13.1 0-23.8 10.6-23.8 23.6 0 13.1 10.7 23.7 23.8 23.7H431c3.4 26.9 5.7 54.9 6.9 84.6 0.5 13.1 11.6 23.2 24.7 22.7 1.9-0.1 3.7-0.4 5.5-0.9h18.6v47.3c0 13 10.7 23.6 23.8 23.6 13.2 0 23.8-10.6 23.8-23.6v-47.3h18.6c1.8 0.5 3.6 0.8 5.5 0.9 13.2 0.5 24.2-9.6 24.8-22.7 1.2-29.7 3.5-57.7 6.9-84.6h15.7c13.2 0 23.8-10.6 23.8-23.7s-10.7-23.6-23.8-23.6h-8.3c14.4-76.7 38.9-144.3 73.9-212.7H701c13.2 0 23.8-10.6 23.8-23.6 0-13.1-10.7-23.6-23.8-23.6h-4c23.3-40.6 50.2-82.3 80.8-127.1 7.4-10.8 4.5-25.5-6.4-32.8-10.9-7.3-25.7-4.5-33.1 6.3-36.5 53.4-68.6 103.5-96 153.6H378.4c-27.4-50.1-59.5-100.2-96-153.6-7.4-10.8-22.2-13.6-33.1-6.3-10.8 7.3-13.7 22-6.3 32.8z"  horiz-adv-x="1024" />

    
    <glyph glyph-name="jiudian" unicode="&#58986;" d="M360.7 597.6c-8.8-17.7-20.6-33.9-36.8-45.7-7.4-4.4-16.2-8.8-23.6-14.7 30.9-10.3 41.3-35.4 60.4-58.9 5.9 19.2 25 38.3 39.8 48.6 7.4 4.4 13.3 7.4 20.6 11.8-31 10.3-42.8 35.4-60.4 58.9zM510.4-113.2c276.1 0 500 223.9 500 500s-223.9 500-500 500-500-223.9-500-500 223.9-500 500-500z m40.3 702c-5.9 13.3-33.9 56-17.7 66.3 8.8 5.9 22.1 0 29.5-2.9 28-10.3 50.1-20.6 72.2-33.9 88.4-54.5 156.2-131.1 156.2-271.1l-39.7-0.4c6.6 85.1-38 163.5-93.5 210.6-20 17-36.8 29.2-64.8 38.1 5.9-13.3 6.6-18 11.7-31.7 8.9-23.6 16.1-48.4 18.5-76.9 12.4-146.7-53-239.2-142.9-286.4-24-12.6-47.6-23.4-64.3-27.9-10.4-2.8-27.3-8.2-27.3-8.2 32.4-17.5 137.4-42.3 206.7-17.2 17.7 5.9 31.4 11.5 46.2 20.4 4.4 2.9 10.8 6 10.8 6 16.2 0 38.4-0.2 54.6-0.2-1.5-2.9-4.4-4.4-5.9-7.4-7.4-5.9-14.7-13.3-22.1-19.2-19.2-13.3-41.3-26.5-64.8-35.4-78.1-30.9-173.9-13.3-238.7 14.7-14.7 7.4-61.9 28-64.8 42.7-2.9 7.4 2.9 14.7 5.9 17.7 10.3 1.5 20.6 4.4 30.9 5.9 20.6 4.4 42.7 10.3 61.9 17.7 67.8 26.5 122.4 74.5 151.9 140.8 35.3 79.6 24.9 165.7-10.5 237.9zM480 531.3c-8.8-7.4-16.2-4.4-29.5-7.4-23.6-5.9-44.2-17.7-57.5-33.9-8.8-11.8-14.7-26.5-19.2-44.2-2.9-10.3 0-20.6-8.8-25h-7.4c-2.9 1.5-5.9 2.9-7.4 5.9-1.5 8.8-4.4 19.2-5.9 28-7.4 22.1-20.6 42.7-38.3 54.5-10.3 7.4-25 13.3-39.8 16.2-5.9 0-13.3 1.5-19.2 1.5-2.9 0-5.9 4.4-7.4 7.4v5.9c1.5 4.4 2.9 7.4 7.4 8.8 5.9 0 11.8 1.5 17.7 1.5 13.3 2.9 26.5 7.4 36.8 13.3 30.9 19.2 39.8 45.7 48.6 86.9 1.5 1.5 2.9 2.9 5.9 4.4 5.9 0 10.3 0 11.8-2.9 4.4-5.9 2.9-19.2 5.9-26.5 4.4-13.3 10.3-26.5 17.7-36.8 11.8-16.2 30.9-29.5 51.6-35.4 11.8-1.5 22.1-4.4 33.9-5.9 4.6-4.5 4.6-10.4 3.1-16.3z m418.4-274c5.9-8.8 10.3-16.2 17.7-22.1h-1.5c-7.4-7.4-17.7-10.3-28-13.3-60.4-20.6-98.7 16.2-144.4 26.5-35.4 7.4-50.1-8.8-72.2-14.7-4.4 7.4-19.2 19.2-16.2 26.5 7.4 4.4 16.2 8.8 25 13.3 11.8 2.9 22.1 4.4 32.4 7.4 56 0 78.1-25 122.3-33.9 23.7-4.4 60.5 11.8 64.9 10.3zM711.3 280.9c-10.3-2.9-20.6-4.4-32.4-7.4-8.8-4.4-17.7-8.8-25-13.3-2.9-7.4 11.8-19.2 16.2-26.5 22.1 5.9 36.8 22.1 72.2 14.7 45.7-10.3 84-47.1 144.4-26.5 10.3 2.9 20.6 5.9 28 13.3h1.5c-7.4 5.9-11.8 13.3-17.7 22.1-4.4 1.5-41.3-14.7-64.8-10.3-44.3 8.8-66.4 33.9-122.4 33.9zM409.3 210.2c-19.2-7.4-41.3-13.3-61.9-17.7-10.3-1.5-20.6-4.4-30.9-5.9-2.9-2.9-8.8-10.3-5.9-17.7 2.9-14.7 50.1-35.4 64.8-42.7 64.8-28 160.6-45.7 238.7-14.7 23.6 8.8 45.7 22.1 64.8 35.4 7.4 5.9 14.7 13.3 22.1 19.2 1.5 2.9 4.4 4.4 5.9 7.4-16.2 0-38.4 0.2-54.6 0.2 0 0-6.4-3-10.8-6-14.7-8.8-28.5-14.5-46.2-20.4-69.2-25-174.3-0.3-206.7 17.2 0 0 16.9 5.5 27.3 8.2 16.7 4.5 40.4 15.3 64.3 27.9 89.9 47.3 155.3 139.7 142.9 286.4-2.4 28.5-9.6 53.3-18.5 76.9-5.1 13.7-5.8 18.4-11.7 31.7 28-8.8 44.8-21.1 64.8-38.1 55.6-47.1 100.1-125.5 93.5-210.6l39.7 0.4c0 140-67.8 216.6-156.2 271.1-22.1 13.3-44.2 23.6-72.2 33.9-7.4 2.9-20.6 8.8-29.5 2.9-16.2-10.3 11.8-53 17.7-66.3 35.4-72.2 45.8-158.3 10.5-237.8-29.5-66.4-84.1-114.4-151.9-140.9zM443.2 553.4c-20.6 5.9-39.8 19.2-51.6 35.4-7.4 10.3-13.3 23.6-17.7 36.8-2.9 7.4-1.5 20.6-5.9 26.5-1.5 2.9-5.9 2.9-11.8 2.9-2.9-1.5-4.4-2.9-5.9-4.4-8.8-41.3-17.7-67.8-48.6-86.9-10.3-5.9-23.6-10.3-36.8-13.3-5.9 0-11.8-1.5-17.7-1.5-4.4-1.5-5.9-4.4-7.4-8.8v-5.9c1.5-2.9 4.4-7.4 7.4-7.4 5.9 0 13.3-1.5 19.2-1.5 14.7-2.9 29.5-8.8 39.8-16.2 17.7-11.8 30.9-32.4 38.3-54.5 1.5-8.8 4.4-19.2 5.9-28 1.5-2.9 4.4-4.4 7.4-5.9h7.4c8.8 4.4 5.9 14.7 8.8 25 4.4 17.7 10.3 32.4 19.2 44.2 13.3 16.2 33.9 28 57.5 33.9 13.3 2.9 20.6 0 29.5 7.4 1.5 5.9 1.5 11.8-2.9 16.2-12 1.6-22.3 4.6-34.1 6z m-42.8-26.5c-14.7-10.3-33.9-29.5-39.8-48.6-19.2 23.6-29.5 48.6-60.4 58.9 7.4 5.9 16.2 10.3 23.6 14.7 16.2 11.8 28 28 36.8 45.7 17.7-23.6 29.5-48.6 60.4-58.9-7.3-4.4-13.2-7.4-20.6-11.8z"  horiz-adv-x="1024" />

    
    <glyph glyph-name="jiaotong" unicode="&#58882;" d="M511.616192 142.738231c-64.402999 0-124.967916 25.101049-170.487556 70.62069s-70.62069 106.084558-70.62069 170.487556 25.101049 124.967916 70.62069 170.487556 106.084558 70.62069 170.487556 70.62069 124.967916-25.101049 170.487556-70.62069 70.62069-106.084558 70.62069-170.487556-25.101049-124.967916-70.62069-170.487556-106.084558-70.62069-170.487556-70.62069zM511.616192 383.846477m-225.832684 0a225.832684 225.832684 0 1 1 451.665368 0 225.832684 225.832684 0 1 1-451.665368 0ZM640.345427 276.456972l-7.13883 205.490854c0 18.422789-15.889655 33.314543-35.54063 33.314543H427.024888c-19.650975 0-35.54063-14.891754-35.54063-33.314543l-7.138831-205.490854h24.64048c-0.153523-0.921139-0.307046-1.91904-0.307046-2.916942v-6.755023c0-8.52054 6.908546-15.429085 15.429085-15.429085h22.184108c8.52054 0 15.429085 6.908546 15.429085 15.429085v6.755023c0 0.997901-0.076762 1.91904-0.307046 2.916942h101.632384c-0.153523-0.921139-0.307046-1.91904-0.307047-2.916942v-6.755023c0-8.52054 6.908546-15.429085 15.429086-15.429085h22.184108c8.52054 0 15.429085 6.908546 15.429085 15.429085v6.755023c0 0.997901-0.076762 1.91904-0.307046 2.916942h24.870764z m-212.169115 32.163118c-10.746627 0-19.497451 8.750825-19.497451 19.497451s8.750825 19.497451 19.497451 19.497452 19.497451-8.750825 19.497451-19.497452c0.076762-10.746627-8.674063-19.497451-19.497451-19.497451z m-13.817092 70.927736l2.609895 84.36102c0 18.576312 6.755022 25.945427 23.872864 25.945427h142.69985c17.117841 0 23.872864-7.369115 23.872864-25.945427l2.763418-84.36102H414.35922zM596.437781 308.62009c-10.746627 0-19.497451 8.750825-19.497451 19.497451s8.750825 19.497451 19.497451 19.497452 19.497451-8.750825 19.497451-19.497452-8.750825-19.497451-19.497451-19.497451z"  horiz-adv-x="1024" />

    
    <glyph glyph-name="daidingjipiao" unicode="&#58889;" d="M511.935864-97.855944a481.791808 481.791808 0 1 0 481.92008 481.92008 481.92008 481.92008 0 0 0-481.92008-481.92008z m0-30.144056A511.935864 511.935864 0 1 1 0 384.064136a511.935864 511.935864 0 0 1 511.935864-512.064136z m107.620694 674.842039l-36.814231-36.81423-219.34611 51.309032c-12.827258 2.950269-15.264437 0-15.264437 0l-43.740949-43.74095c-11.672805-11.672805 5.643993-19.240887 5.643993-19.240887l167.652261-93.895528L390.974821 318.773393l-59.518476 12.827258c-12.827258 1.924089-11.031442 2.693724-15.520982-1.795816l-31.170237-31.298509a11.031442 11.031442 0 0 1 1.026181-18.214706l84.531629-60.288113 60.288112-84.531629a11.031442 11.031442 0 0 1 17.701616-1.154453l31.29851 31.298509c4.361268 4.361268 3.591632 2.693724 1.795816 15.520982l-12.827258 59.518477 86.712263 86.712263 93.895528-167.652261s7.568082-17.188526 19.240887-5.643993l43.74095 43.740949s2.950269 2.565452 0 15.264437l-51.309032 219.346111 36.81423 36.81423s89.790805 81.58136 47.332582 124.296129-124.296129-47.332582-124.296129-47.332582"  horiz-adv-x="1024" />

    
    <glyph glyph-name="huanyipi" unicode="&#58974;" d="M1151.777957 380.330889l-151.123074-253.591681-151.123073 253.591681h107.670926a110.186801 110.186801 0 0 0-0.085284 3.752492c0 217.772443-170.908939 394.949748-381.00583 394.949748a369.705713 369.705713 0 0 1-206.813462-63.195371 55.008116 55.008116 0 0 0-77.736276 17.227348 59.570805 59.570805 0 0 0 16.630361 80.593287A478.954391 478.954391 0 0 0 768.21361 855.362221a491.320557 491.320557 0 0 0 156.794453-109.589814 510.765286 510.765286 0 0 0 105.709396-162.551116 524.410711 524.410711 0 0 0 38.718891-202.890402H1151.777957z m-956.629524 0c1.918888-216.066765 172.102913-391.197256 380.963189-391.197256a369.705713 369.705713 0 0 1 206.813461 63.195371 55.008116 55.008116 0 0 0 77.736276-17.227348 59.570805 59.570805 0 0 0-16.630361-80.593287 478.997033 478.997033 0 0 0-460.021365-41.703828 490.851495 490.851495 0 0 0-156.794453 109.589814 510.765286 510.765286 0 0 0-105.709395 162.551116 524.240143 524.240143 0 0 0-38.804176 195.385418H0.445286l151.123074 253.634324 151.080431-253.634324H195.148433z"  horiz-adv-x="1152" />

    
    <glyph glyph-name="xiaoxing" unicode="&#58962;" d="M583.68 805.12l86.272-174.848c12.032-24.32 35.328-41.216 62.208-45.312l192.768-27.904c67.84-9.984 94.976-93.184 45.824-141.056l-139.52-135.936c-19.456-18.944-28.416-46.336-23.808-73.216l33.024-192c11.52-67.584-59.392-119.04-120.064-87.296L547.84 18.176c-24.064 12.544-52.992 12.544-77.056 0l-172.544-90.624c-60.672-32-131.584 19.712-120.064 87.296l33.024 192c4.608 26.88-4.352 54.272-23.808 73.216l-139.52 135.936c-49.152 47.872-22.016 131.328 45.824 141.056l192.768 27.904c26.88 3.84 50.176 20.736 62.208 45.312l86.272 174.848c30.72 61.44 118.528 61.44 148.736 0z"  horiz-adv-x="1024" />

    
    <glyph glyph-name="gongyuxuanshang" unicode="&#58959;" d="M-491.65168515625-298.5842692382812zM637.8988765625 86.69662880859369v456.573033984375c-1.5168541992187499 24.26966279296875-16.6853935546875 46.0112361328125-39.438202148437504 56.123595703125005l-5.05617978515625 2.5280894531249998-44.49438193359375 20.224719140625-27.30337119140625 12.1348318359375-235.61797763671873 106.17977548828124c-9.1011234375 4.04494365234375-18.202246875 6.06741591796875-27.3033703125 6.0674150390625-35.39325849609375 0-66.74157333984374-28.3146064453125-66.74157333984374-67.24719052734375v-655.7865169921874H638.4044946289064l-0.5056180664062501 63.202246875z m-255.3370787109375 394.38202324218753v85.44943740234375h85.44943828125v-85.44943740234375h-85.44943828125z m84.94382021484375-74.32584345703124v-85.44943740234375h-85.44943828125v85.44943740234375h85.44943828125z m-96.06741591796875-149.6629212890625h106.6853935546875v-170.39325849609375h-106.6853935546875v170.39325849609375zM885.65168515625 597.876404296875c-7.07865205078125 0-14.15730322265625-1.5168541992187499-21.23595439453125-4.04494365234375l-182.022472265625-72.80898837890625 2.5280894531249998-499.5505617187499h258.8764051757812V539.224719140625c0 33.876404296874995-27.30337119140625 58.651685156250004-58.146067968749996 58.651685156250004z m-140.05617978515625-232.07865117187498h74.325842578125v-74.325842578125h-74.325842578125v74.325842578125z m83.42696689453126-278.59550625h-92.52809033203124v148.14606796875h92.52809033203124v-148.14606796875z"  horiz-adv-x="1150" />

    
    <glyph glyph-name="jiantouyou" unicode="&#58925;" d="M312.888889-99.555556c-17.066667 0-28.444444 5.688889-39.822222 17.066667-22.755556 22.755556-17.066667 56.888889 5.688889 79.644445l364.088888 329.955555c11.377778 11.377778 17.066667 22.755556 17.066667 34.133333 0 11.377778-5.688889 22.755556-17.066667 34.133334L273.066667 708.266667c-22.755556 22.755556-28.444444 56.888889-5.688889 79.644444 22.755556 22.755556 56.888889 28.444444 79.644444 5.688889l364.088889-312.888889c34.133333-28.444444 56.888889-73.955556 56.888889-119.466667s-17.066667-85.333333-51.2-119.466666l-364.088889-329.955556c-11.377778-5.688889-28.444444-11.377778-39.822222-11.377778z"  horiz-adv-x="1024" />

    
    <glyph glyph-name="qizi" unicode="&#58964;" d="M827.1 769c-2.3 0-4.7-0.3-7.1-0.9-38-9.2-76-12.8-114-12.8-129.3 0-258.6 41.4-388 41.4-28.7 0-57.3-2.4-86-7.4V804c0 15.5-12.5 28-28 28s-28-12.5-28-28v-840c0-15.5 12.5-28 28-28s28 12.5 28 28V341.3c28.7 5 57.3 7.4 86 7.4 129.3 0 258.6-41.4 388-41.4 38 0 76 3.6 114 12.8 15.4 3.7 28 20.4 28 35.9V748c0 13-8.9 21-20.9 21zM792 371.3c-26.7-5.4-55-8-86-8-60.2 0-120.9 9.7-185.1 20-65.7 10.5-133.7 21.4-202.8 21.4-30.1 0-58.7-2.1-86-6.3V732.7c26.8 5.3 55.2 8 86 8 60.2 0 120.9-9.7 185.1-20 65.7-10.5 133.7-21.4 202.8-21.4 30.3 0 58.7 2.1 86 6.3v-334.3z"  horiz-adv-x="1024" />

    
    <glyph glyph-name="shizhong" unicode="&#58932;" d="M568 584c-106.032 0-192-85.968-192-192s85.968-192 192-192 192 85.968 192 192-85.968 192-192 192z m0-352c-88.368 0-160 71.632-160 160s71.632 160 160 160 160-71.632 160-160-71.632-160-160-160z m96 176h-68.432a32.064 32.064 0 0 1-11.568 11.568v98.432c0 9.936-7.152 18-16 18s-16-8.064-16-18v-98.432a31.84 31.84 0 0 1-16-27.568 32 32 0 0 1 32-32c11.808 0 22.016 6.464 27.568 16H664a16 16 0 1 1 0 32z"  horiz-adv-x="1024" />

    
    <glyph glyph-name="down-trangle" unicode="&#58883;" d="M535.76686834 180.25358891999997l359.90494681 359.90494683c13.76003093 13.76003093 13.76003093 36.93263313 0 51.41535214-13.76003093 13.76003093-36.93263313 13.76003093-51.41535212 0l-334.55798527-334.55798527-333.10757301 333.107573c-13.76003093 13.76003093-36.93263313 13.76003093-51.41535212 0-13.76003093-13.76003093-13.76003093-36.93263313 0-51.41535212l358.45201649-358.45201649c15.20540705-14.48145996 37.65532119-14.48145996 52.14685344 0Z"  horiz-adv-x="1024" />

    
    <glyph glyph-name="qunaer" unicode="&#58927;" d="M1016.325659 327.410526c-8.084211-5.389474-13.473684-8.084211-21.557895-10.778947v-10.778947c-5.389474 0-10.778947 0-18.863158 2.694736 0-5.389474 0-10.778947 2.694737-16.168421 10.778947-18.863158 21.557895-35.031579 35.031579-53.894736 8.084211-10.778947 10.778947-21.557895 10.778947-35.031579-2.694737-53.894737-2.694737-105.094737-5.389473-158.989474v-13.473684c5.389474-24.252632-5.389474-35.031579-29.642105-35.031579h-26.947369s0 2.694737-2.694737 2.694737l10.778948 10.778947c13.473684 8.084211 16.168421 21.557895 16.168421 35.031579 5.389474 83.536842-13.473684 158.989474-70.063158 223.663158-18.863158 21.557895-37.726316 40.421053-59.284211 59.28421-8.084211 8.084211-13.473684 8.084211-16.168421-2.694737l-16.168421-80.842105c-2.694737-16.168421-2.694737-35.031579-5.389474-51.2-2.694737-8.084211-5.389474-16.168421-10.778947-18.863158-45.810526-45.810526-75.452632-99.705263-107.789474-158.989473-16.168421-2.694737-32.336842-13.473684-51.2-2.694737 10.778947 10.778947 21.557895 21.557895 32.336843 35.031579l16.168421 16.168421c43.115789 56.589474 61.978947 123.957895 72.757894 191.326316 2.694737 21.557895 8.084211 48.505263-10.778947 70.063157 0 0-2.694737 2.694737-2.694737 5.389474 5.389474 26.947368-8.084211 53.894737 8.084211 80.842105v10.778948c-29.642105 2.694737-56.589474 5.389474-86.231579 5.389473-8.084211 0-16.168421-5.389474-24.252632-8.08421-29.642105-13.473684-59.284211-29.642105-91.621053-40.421053-10.778947-5.389474-24.252632-5.389474-37.726315-8.08421-8.084211 0-13.473684-2.694737-16.168421-13.473684-8.084211-32.336842-10.778947-64.673684 0-99.705264 8.084211-24.252632 5.389474-48.505263 2.694736-72.757894-2.694737-24.252632-5.389474-48.505263-5.389473-72.757895 0-2.694737 2.694737-8.084211 5.389473-10.778947 10.778947-8.084211 13.473684-24.252632 2.694737-29.642106-16.168421-8.084211-16.168421-18.863158-13.473684-32.336842v-5.389473c0-24.252632-5.389474-29.642105-29.642105-24.252632-5.389474 0-10.778947 2.694737-16.168421 2.694737l8.08421 16.168421c13.473684 21.557895 16.168421 43.115789 0 70.063158-21.557895 32.336842-51.2 56.589474-75.452631 86.231579-8.084211 10.778947-16.168421 18.863158-26.947369 26.947368-21.557895 16.168421-18.863158 43.115789-2.694737 59.284211 18.863158 21.557895 37.726316 40.421053 51.2 67.368421 8.084211 16.168421 16.168421 32.336842 21.557895 48.505263 0 2.694737 0 8.084211-2.694737 10.778947-10.778947 16.168421-21.557895 29.642105-32.336842 43.11579-2.694737 2.694737-8.084211 5.389474-13.473684 5.389473-26.947368 2.694737-51.2 5.389474-78.147368 5.389474-21.557895 0-37.726316 8.084211-53.894737 18.863158-37.726316 21.557895-64.673684 51.2-91.621053 83.536842-5.389474 8.084211-10.778947 13.473684-18.863158 18.863158-18.863158 13.473684-24.252632 32.336842-26.947368 53.894737 5.389474 16.168421-5.389474 24.252632-24.252632 29.642105-26.947368 5.389474-56.589474 10.778947-83.536842 18.863158-2.694737 0-5.389474 2.694737-5.389474 8.08421-2.694737 18.863158 8.084211 35.031579 26.947369 43.11579 16.168421 5.389474 32.336842 8.084211 48.505263 5.389474 5.389474 0 10.778947 0 13.473684 2.694736 26.947368 16.168421 56.589474 13.473684 86.231579 10.778948 24.252632-2.694737 18.863158-2.694737 26.947369-26.947369 10.778947-40.421053 18.863158-83.536842 48.505263-118.568421 13.473684-13.473684 26.947368-24.252632 45.810526-24.252631s40.421053-2.694737 59.284211 0c13.473684 2.694737 29.642105 13.473684 40.421052 21.557895 10.778947 8.084211 18.863158 18.863158 24.252632 26.947368 21.557895 26.947368 51.2 40.421053 86.231579 40.421053 10.778947 0 24.252632-2.694737 35.031579 0 5.389474 0 13.473684 5.389474 18.863158 10.778947 5.389474 5.389474 5.389474 10.778947 8.08421 16.168421 8.084211 18.863158 13.473684 24.252632 35.031579 21.557895 16.168421-2.694737 26.947368 5.389474 29.642105 21.557894 2.694737 5.389474 2.694737 13.473684 5.389474 18.863158 2.694737 2.694737 8.084211 8.084211 13.473684 8.084211s10.778947-5.389474 13.473684-10.778947c16.168421-37.726316 16.168421-37.726316 51.2-16.168422 10.778947 5.389474 21.557895 13.473684 35.031579 16.168422 16.168421 5.389474 26.947368 0 29.642106-16.168422 2.694737-10.778947 13.473684-10.778947 18.863158-13.473684 21.557895-5.389474 21.557895-8.084211 8.08421-24.252631-5.389474-5.389474-5.389474-16.168421-5.389474-21.557895 5.389474-16.168421 13.473684-35.031579 18.863158-51.2 2.694737-5.389474 8.084211-8.084211 10.778948-13.473684 43.115789-26.947368 72.757895-64.673684 102.4-102.4 5.389474-8.084211 8.084211-16.168421 8.08421-24.252632l8.084211-105.094737c0-13.473684 5.389474-24.252632 18.863158-29.642105 16.168421-5.389474 29.642105-13.473684 45.810526-21.557895z m-552.421053-10.778947H458.515133l-8.084211-8.084211c-5.389474-8.084211-13.473684-18.863158-18.863158-26.947368-13.473684-18.863158-21.557895-37.726316-10.778947-61.978947 5.389474-10.778947 10.778947-21.557895 18.863158-29.642106 13.473684-16.168421 29.642105-32.336842 43.115789-48.505263 0 0 2.694737 0 2.694737 2.694737-5.389474 56.589474-13.473684 113.178947-21.557895 172.463158z"  horiz-adv-x="1024" />

    
    <glyph glyph-name="dui" unicode="&#58909;" d="M512 768.17c-212.29 0-384.13-172.1-384.13-384.39 0-212 171.93-384 384.13-384 212 0 384.13 171.93 384.13 384 0 212.3-172.13 384.39-384.13 384.39z m-35-507.44a32 32 0 0 0-22.84-9.45 31.13 31.13 0 0 0-22.67 9.45l-94.29 98 27.65 26.54 89.48-92.75 206.32 208.23L688 473.7z m0 0"  horiz-adv-x="1024" />

    
    <glyph glyph-name="laba" unicode="&#58902;" d="M64 523.207c0 16.505 5.872 30.469 17.615 41.896 11.744 11.427 25.867 17.139 42.372 17.139h59.987v-267.563h-59.987c-16.504 0-30.628 5.714-42.372 17.139C69.872 343.245 64 357.211 64 373.715V523.207z m666.525 245.662c27.296 26.027 52.052 40.309 74.27 42.848 22.217 2.539 41.896-3.332 59.035-17.615 17.139-14.282 31.739-35.231 43.8-62.843 12.061-27.613 21.901-58.4 29.518-92.362 7.617-33.961 13.33-69.508 17.139-106.643 3.808-37.135 5.713-72.525 5.713-106.168s-2.381-67.287-7.141-100.931c-4.76-33.643-11.743-65.224-20.948-94.742-9.204-29.517-19.995-55.384-32.374-77.602-12.378-22.219-26.185-38.722-41.419-49.514-15.235-10.791-31.58-14.6-49.037-11.425-17.457 3.174-35.707 15.551-54.751 37.134-18.408 21.583-43.324 39.516-74.746 53.798-31.422 14.282-65.7 26.343-102.835 36.183a1130.507 1130.507 0 0 1-112.833 23.804c-38.087 6.031-73 11.427-104.739 16.187s-58.242 9.364-79.507 13.806c-21.265 4.444-33.168 9.84-35.707 16.188V587.003c2.539 8.886 12.537 16.187 29.994 21.9 17.456 5.713 39.673 11.109 66.652 16.187 26.978 5.078 57.448 10.633 91.409 16.663 33.961 6.031 68.557 14.282 103.788 24.757 35.231 10.474 69.668 23.804 103.312 39.992 33.642 16.187 64.111 36.976 91.407 62.367zM387.74 185.184c3.175-7.617 6.983-15.87 11.427-24.757 3.808-8.253 8.887-17.775 15.235-28.566 6.348-10.791 13.966-22.535 22.852-35.231 10.792-15.235 21.742-31.263 32.851-48.085 11.109-16.823 19.519-32.057 25.233-45.705 5.713-13.648 7.458-24.915 5.237-33.802s-11.267-13.331-27.137-13.331h-54.273c-12.697 0-24.44 2.38-35.231 7.141-10.792 4.761-21.107 12.061-30.947 21.9-9.839 9.84-19.995 22.377-30.469 37.612-10.474 15.235-21.741 33.326-33.802 54.273-14.6 24.122-24.757 45.229-30.47 63.32-5.713 18.092-9.521 33.168-11.425 45.229-2.539 13.964-2.539 26.026 0 36.182 5.078-0.634 11.109-1.903 18.092-3.808a2696 2696 0 0 0 20.947-4.762c8.253-1.904 17.774-3.808 28.566-5.713 10.791-2.539 20.472-4.92 29.041-7.141 8.57-2.221 16.346-4.602 23.329-7.141 7.614-2.537 14.597-5.076 20.944-7.615z"  horiz-adv-x="1024" />

    
    <glyph glyph-name="houtai-menpiao" unicode="&#58936;" d="M712.00622 414.819936c-39.962154 0.892323-65.963341 46.031383-47.488571 82.96762 5.554506 11.106965 6.002714 19.377326-0.935302 28.828582-1.689479 2.302439-2.795673 5.087878-4.203742 7.630795-7.795547 14.083763-10.497075 14.908548-23.817451 6.721075-35.966143-22.109554-135.975904-83.785242-171.919535-105.934705l-98.843192-60.918441c-25.591865-15.773242-25.266453-15.579837-10.818393-43.397392 4.296863-8.273431 9.188266-10.691503 17.897625-10.800997 40.226167-0.506537 66.245773-45.744857 47.496757-83.678818-5.66707-11.465123-5.123694-19.523659 1.508353-28.811186 1.24741-1.746784 2.098801-3.815909 3.145644-5.728468 8.381901-15.304568 11.800767-16.300244 26.324552-7.354502 68.601424 42.256406 201.26898 124.033921 269.86017 166.3067 24.880667 15.334243 24.613584 15.174608 10.364046 42.363853-4.365424 8.329712-9.185196 11.596106-18.570961 11.805884z m-272.201496-66.22633c-3.947915 8.964162-0.701988 15.632025 6.989182 20.364816 25.778106 15.859199 115.567086 71.345931 141.41273 87.079264 9.159614 5.574972 16.974603 4.000104 20.530592-3.967358 4.182252-9.371438-0.215918-15.388479-7.664563-19.944237-12.906961-7.895831-89.855494-55.362912-102.739943-63.300699s-25.695219-16.015765-38.677904-23.768333c-8.594749-5.132904-16.641005-3.749394-19.850094 3.536547z m199.638853 18.32025c-26.955932-17.130146-118.219495-73.359798-145.590889-89.72144-7.184633-4.293793-14.673188-2.51631-18.4717 5.911639-3.590781 7.966439-0.10847 14.078647 6.841825 18.302855 13.484106 8.193613 26.888394 16.537651 40.326451 24.819269 13.139252 8.098445 90.372264 55.666834 103.493095 63.799048 6.859221 4.250814 13.241582 4.6366 17.999956-3.169179 4.967128-8.150634 2.343371-15.531741-4.598738-19.942192zM512 830.709995c-246.706845 0-446.701808-199.999057-446.701808-446.708972S265.293155-62.707948 512-62.707948s446.701808 199.999057 446.701808 446.708971S758.705821 830.709995 512 830.709995zM293.341978 363.791749a30.15888 30.15888 0 0 1 2.047636-3.372817c-0.833995-11.360745 1.315972-23.393803 6.705725-35.602869-11.113105-0.673335-19.435655 4.27128-25.100677 14.57495a2402.537735 2402.537735 0 0 0-13.003152 23.976064c-13.495362 25.224498-8.068769 47.111994 15.600303 61.935608 21.488407 13.456477 43.13031 26.635637 64.706721 39.932478 50.944276 31.398104 165.979242 102.271268 216.908168 133.697001 11.148921 6.879688 22.698978 10.934027 35.651988 6.686283 8.550747-2.803859 15.184841-8.28264 19.778462-16.412808-1.953492-1.035586-3.885494-1.991354-5.89936-3.233648l-17.10354-10.550287c-4.684696 5.829775-8.700149 4.7727-18.710131-1.38044-35.966143-22.10853-135.975904-83.783195-171.919534-105.933681l-98.843192-60.919465c-25.592888-15.772218-25.267477-15.58086-10.819417-43.396369z m50.071396-147.259902c-4.03899 7.320733-7.682983 14.906501-12.011568 22.022573-7.977695 13.111622-7.046486 25.249057 1.217734 38.022989 0.078795 0.121773 0.135076 0.246617 0.211824 0.36839 7.251148-5.565762 15.783475-8.716522 25.196869-9.233292-4.824889-10.612709-4.097318-18.372439 2.214434-27.212782 1.24741-1.746784 2.097778-3.815909 3.145644-5.729491 0.589424-1.077541 1.110287-1.920746 1.655709-2.858094-2.544963-15.205307 1.811252-28.240181 7.334036-37.938054-11.392468 1.313925-21.439288 8.921183-28.964682 22.557761z m405.050176 129.755226c-37.96159-23.63121-140.169413-86.459141-178.224124-109.919458-37.156248-22.907733-74.291007-45.854351-111.484094-68.693522-21.727861-13.34289-41.869596-7.476275-54.704926 15.783475-4.03899 7.319709-7.682983 14.907525-12.011568 22.021549-7.977695 13.113669-7.046486 25.251104 1.218757 38.025035 11.908214 18.403139 4.857635 40.707121-14.267958 47.607274-5.13802 1.853208-10.265808 1.087774-15.418154 0.647753-11.546987-0.988514-20.129456 3.988848-25.939789 14.557554a2381.540516 2381.540516 0 0 0-13.002129 23.975041c-13.494339 25.224498-8.068769 47.111994 15.600303 61.934585 21.488407 13.4575 43.13031 26.635637 64.706721 39.934524 50.944276 31.397081 165.979242 102.270245 216.908168 133.695978 11.148921 6.879688 22.698978 10.93505 35.651988 6.687306 8.646937-2.836605 15.35164-8.387018 19.950378-16.668635 5.64558-10.16757 11.06808-20.475334 16.681937-30.66337 5.916756-10.738575 5.579065-21.216207-1.545192-31.007201-8.241708-11.328-10.369162-23.050995-3.567245-35.967166 6.819313-12.947893 17.407462-17.10968 30.688953-15.297405 12.416797 1.694595 21.392216-3.38305 27.289529-15.326057 4.676509-9.468652 10.088776-18.520819 14.945387-27.892257 10.482749-20.228717 5.196349-41.811268-13.476942-53.435003z"  horiz-adv-x="1024" />

    
    <glyph glyph-name="xingbiao_liebiao_hong_xiao" unicode="&#59059;" d="M512 87.586133L196.949333-128V896h630.101334v-1024L512 87.586133z m0 257.024l138.922667-73.045333-26.555734 154.692267 112.366934 109.533866-155.306667 22.562134L512 699.0848l-69.461333-140.731733-155.306667-22.562134 112.401067-109.533866-26.5216-154.658134L512 344.644267z"  horiz-adv-x="1024" />

    


  </font>
</defs>
</svg>
